<svg xmlns="http://www.w3.org/2000/svg" viewBox="0 0 512 512">
  <defs>
    <linearGradient id="grad" x1="0%" y1="0%" x2="100%" y2="100%">
      <stop offset="0%" style="stop-color:#00C6FF;stop-opacity:1" />
      <stop offset="100%" style="stop-color:#0096C7;stop-opacity:1" />
    </linearGradient>
  </defs>
  <rect x="32" y="32" width="448" height="448" rx="128" fill="url(#grad)" />
  <path d="M256 128c-70.7 0-128 57.3-128 128s57.3 128 128 128c35.3 0 67.3-14.3 90.5-37.5l-45.3-45.3c-12 12-28.7 19.5-47.2 19.5-33.8 0-61.3-27.5-61.3-61.3s27.5-61.3 61.3-61.3c18.5 0 35.2 7.5 47.2 19.5l45.3-45.3C323.3 142.3 291.3 128 256 128z" fill="white"/>
  <polygon points="360,256 320,230 320,282" fill="white"/>
</svg>
